<?xml version="1.0" encoding="utf-8"?>
<!-- Generator: Adobe Illustrator 23.1.0, SVG Export Plug-In . SVG Version: 6.00 Build 0)  -->
<svg version="1.1" id="Слой_1" xmlns="http://www.w3.org/2000/svg" xmlns:xlink="http://www.w3.org/1999/xlink" x="0px" y="0px"
	 viewBox="0 0 512 512" style="enable-background:new 0 0 512 512;" xml:space="preserve">
<style type="text/css">
	.st0{fill:none;stroke:#F9FAF2;stroke-width:32;stroke-linejoin:round;}
	.st1{fill:#F9FAF2;}
	.st2{fill:none;stroke:#F9FAF2;stroke-width:32;stroke-linecap:round;stroke-linejoin:round;}
</style>
<title>ionicons-v5-e</title>
<path class="st0" d="M96,80h320c26.5,0,48,21.5,48,48v288c0,26.5-21.5,48-48,48H96c-26.5,0-48-21.5-48-48V128
	C48,101.5,69.5,80,96,80z"/>
<path class="st1" d="M397.8,80H114.2C77.7,80,48,110.2,48,147.2V208h16c0-16,16-32,32-32h320c16,0,32,16,32,32h16v-60.8
	C464,110.2,434.3,80,397.8,80z"/>
<circle class="st1" cx="296" cy="232" r="24"/>
<circle class="st1" cx="376" cy="232" r="24"/>
<circle class="st1" cx="296" cy="312" r="24"/>
<circle class="st1" cx="376" cy="312" r="24"/>
<circle class="st1" cx="136" cy="312" r="24"/>
<circle class="st1" cx="216" cy="312" r="24"/>
<circle class="st1" cx="136" cy="392" r="24"/>
<circle class="st1" cx="216" cy="392" r="24"/>
<circle class="st1" cx="296" cy="392" r="24"/>
<line class="st2" x1="128" y1="48" x2="128" y2="80"/>
<line class="st2" x1="384" y1="48" x2="384" y2="80"/>
</svg>
