<?xml version="1.0" encoding="utf-8"?>
<!-- Generator: Adobe Illustrator 23.1.0, SVG Export Plug-In . SVG Version: 6.00 Build 0)  -->
<svg version="1.1" id="Слой_1" xmlns="http://www.w3.org/2000/svg" xmlns:xlink="http://www.w3.org/1999/xlink" x="0px" y="0px"
	 viewBox="0 0 512 512" style="enable-background:new 0 0 512 512;" xml:space="preserve">
<style type="text/css">
	.st0{fill:none;stroke:#F9FAF2;stroke-width:32;stroke-linecap:round;stroke-linejoin:round;}
	.st1{fill:none;stroke:#F9FAF2;stroke-width:32;stroke-linejoin:round;}
</style>
<title>ionicons-v5-m</title>
<path class="st0" d="M388.3,272c47.8,0,89.8-27.8,107.7-68.9c-14.2,6.2-30.9,8.6-47.4,8.6c-64.2,0-116.3-52.1-116.3-116.3l0,0
	c0-16.5,2.4-33.2,8.6-47.4C299.8,65.9,272,107.9,272,155.7c0,9.5,1.1,19,3.4,28.2"/>
<path class="st1" d="M90.6,306.9c6.9-1.1,12.3-6.4,13.4-13.3C116.1,220.2,169.6,176,232,176c57.9,0,96.6,37.8,112.2,77.7
	c2,5.2,6.7,9,12.2,9.9c50,8.1,91.6,41.5,91.6,99.6c0,59.4-48.6,100.8-108,100.8H106c-49.5,0-90-24.7-90-79.2
	C16,336.3,54.7,312.6,90.6,306.9z"/>
</svg>
