<?xml version="1.0" encoding="utf-8"?>
<!-- Generator: Adobe Illustrator 23.1.0, SVG Export Plug-In . SVG Version: 6.00 Build 0)  -->
<svg version="1.1" id="Capa_1" xmlns="http://www.w3.org/2000/svg" xmlns:xlink="http://www.w3.org/1999/xlink" x="0px" y="0px"
	 viewBox="0 0 512 512" style="enable-background:new 0 0 512 512;" xml:space="preserve">
<style type="text/css">
	.st0{opacity:0.35;}
</style>
<g class="st0">
	<path d="M262.7,287.6l-49.4-24.7l27.2-114.4c1-4,0.2-8.2-2-11.7C236.9,134.3,197.8,76,121,76C53.1,76,0,135.3,0,211
		c0,42.8,18,87.3,52.1,128.7c37.4,45.5,93.7,87.4,167.1,124.6c4.1,2.1,9.1,2.2,13.3,0.1c4.2-2,7.2-6,8.2-10.6l30-150
		C272,297.3,268.8,290.6,262.7,287.6L262.7,287.6z M215.2,428.4c-61.1-32.9-108.1-69.1-139.9-107.8C45.7,284.7,30,246.8,30,211
		c0-58.9,40-105,91-105c36.6,0,68.1,17.5,88.8,42.4l-28.4,119.1c-1.6,6.8,1.7,13.8,7.9,16.9l49.8,24.9L215.2,428.4z"/>
	<path d="M391,46c-76.8,0-115.9,58.3-117.5,60.8c-1,1.5-1.6,3.1-2,4.8l-30,126c-1.6,6.8,1.7,13.8,7.9,16.9l49.8,24.9l-27.8,138.8
		c-1.1,5.6,1.1,11.4,5.6,14.9c4.6,3.5,10.7,4,15.9,1.4c73.4-37.2,129.7-79.2,167.1-124.6C494,268.3,512,223.8,512,181
		C512,105.3,458.9,46,391,46L391,46z M436.7,290.7c-30,36.5-73.6,70.8-129.8,102.2l23.8-118.9c1.3-6.6-2-13.3-8-16.4l-49.4-24.7
		l26.6-111.6c6.6-8.8,37.4-45.3,91.1-45.3c51,0,91,46.1,91,105C482,216.8,466.3,254.7,436.7,290.7z"/>
</g>
</svg>
