<?xml version="1.0" encoding="utf-8"?>
<!-- Generator: Adobe Illustrator 23.1.0, SVG Export Plug-In . SVG Version: 6.00 Build 0)  -->
<svg version="1.1" id="Слой_1" xmlns="http://www.w3.org/2000/svg" xmlns:xlink="http://www.w3.org/1999/xlink" x="0px" y="0px"
	 viewBox="0 0 512 512" style="enable-background:new 0 0 512 512;" xml:space="preserve">
<style type="text/css">
	.st0{opacity:0.5;}
	.st1{fill:#E4E4E4;}
</style>
<title>ionicons-v5-g</title>
<g class="st0">
	<path class="st1" d="M391.8,145.2c0,16.4-3.4,31.5-10.2,45.4c-6.8,13.9-15,26.1-24.6,36.6c-9.6,10.5-22.5,23.2-38.9,38.1
		c-20.7,18.7-36,34.7-46,47.7c-10,13.1-14.9,27.6-14.9,43.6l-26.9,5.9c0-16.4,2.4-31.2,7.3-44.5c4.9-13.3,10.9-24.9,18.2-34.8
		c7.2-10,16.7-21.8,28.4-35.4c16.4-19.1,28.6-35.7,36.6-49.8c8-14.1,12-30.6,12-49.8c0-26.2-7.9-47.6-23.7-64.4
		c-15.8-16.8-35.8-25.2-60-25.2c-16,0-30.3,5.7-42.8,17c-12.5,11.3-18.7,25.2-18.7,41.6c0,10.5,2.4,20.7,7.3,30.5
		c4.9,9.8,11.2,18.4,19,25.8l-42.2,36.3c-9.4-7.8-16.5-17.9-21.4-30.2c-4.9-12.3-7.3-24.5-7.3-36.6c0-20.3,5.9-39,17.9-56.2
		c11.9-17.2,27.6-30.7,47.1-40.7C227.4,36,248.1,31,269.9,31c23.4,0,44.3,4.7,62.7,14.1c18.3,9.4,32.8,22.7,43.3,40.1
		C386.5,102.6,391.8,122.6,391.8,145.2z M278.7,428.1c0,9.8-3.4,18-10.2,24.6c-6.8,6.6-15.3,10-25.5,10c-9.8,0-18-3.3-24.6-10
		c-6.6-6.6-10-14.8-10-24.6c0-9.8,3.3-18.2,10-25.2c6.6-7,14.8-10.5,24.6-10.5c9.8,0,18.2,3.5,25.2,10.5
		C275.2,409.9,278.7,418.3,278.7,428.1z"/>
</g>
</svg>
