<?xml version="1.0" encoding="utf-8"?>
<!-- Generator: Adobe Illustrator 23.1.0, SVG Export Plug-In . SVG Version: 6.00 Build 0)  -->
<svg version="1.1" id="Слой_1" xmlns="http://www.w3.org/2000/svg" xmlns:xlink="http://www.w3.org/1999/xlink" x="0px" y="0px"
	 viewBox="0 0 512 512" style="enable-background:new 0 0 512 512;" xml:space="preserve">
<style type="text/css">
	.st0{opacity:0.35;fill:none;stroke:#000000;stroke-width:32;stroke-linecap:round;stroke-linejoin:round;}
	.st1{opacity:0.35;}
</style>
<title>ionicons-v5-g</title>
<path class="st0" d="M112.9,128c-31,34.7-48.4,79.5-48.9,126c-1.2,106.4,85.6,193.8,192,194c106.2,0.2,192-85.8,192-192
	c0-104.5-83.5-189.6-187.5-192c-2.4-0.1-4.4,1.8-4.5,4.2c0,0.1,0,0.1,0,0.2V152"/>
<path class="st1" d="M233.4,278.6l-79-113c-2.6-3.7-1.7-8.7,2-11.3c2.8-2,6.5-2,9.3,0l113,79c14.6,10.5,17.9,30.8,7.4,45.4
	c-10.3,14.3-30.1,17.8-44.6,7.9C238.3,284.4,235.6,281.7,233.4,278.6z"/>
</svg>
