<?xml version="1.0" encoding="utf-8"?>
<!-- Generator: Adobe Illustrator 23.1.0, SVG Export Plug-In . SVG Version: 6.00 Build 0)  -->
<svg version="1.1" id="Слой_1" xmlns="http://www.w3.org/2000/svg" xmlns:xlink="http://www.w3.org/1999/xlink" x="0px" y="0px"
	 viewBox="0 0 512 512" style="enable-background:new 0 0 512 512;" xml:space="preserve">
<style type="text/css">
	.st0{fill:none;stroke:#F9FAF2;stroke-width:32;stroke-linecap:round;stroke-linejoin:round;}
	.st1{fill:none;stroke:#F9FAF2;stroke-width:32;stroke-miterlimit:10;}
</style>
<title>ionicons-v5-g</title>
<path class="st0" d="M374.8,308.8l82.7,58.2c8.1,3.6,17.5,0,21.1-8.1c0.9-2,1.4-4.3,1.4-6.5V159.6c0-8.8-7.2-16-16-16
	c-2.2,0-4.5,0.5-6.5,1.4l-82.7,58.2c-4.3,3-6.8,7.9-6.8,13.1v79.4C368,300.9,370.5,305.8,374.8,308.8z"/>
<path class="st1" d="M268,384H84c-28.7-0.1-51.9-23.3-52-52V180c0.1-28.7,23.3-51.9,52-52h184.5c28.4,0.1,51.4,23.1,51.5,51.5V332
	C319.9,360.7,296.7,383.9,268,384z"/>
</svg>
