<?xml version="1.0" encoding="utf-8"?>
<!-- Generator: Adobe Illustrator 23.1.0, SVG Export Plug-In . SVG Version: 6.00 Build 0)  -->
<svg version="1.1" id="Слой_1" xmlns="http://www.w3.org/2000/svg" xmlns:xlink="http://www.w3.org/1999/xlink" x="0px" y="0px"
	 viewBox="0 0 100 100" style="enable-background:new 0 0 100 100;" xml:space="preserve">
<style type="text/css">
	.st0{opacity:0.35;}
</style>
<g class="st0">
	<path d="M35.6,86.4L33,81.2c10.8-8.9,19.1-16.4,24.8-22.5s9.5-11.1,11.4-15.1c1.9-4,2.8-8.2,2.8-12.6c0-4.2-1.3-7.5-3.9-9.9
		s-5.7-3.5-9.3-3.5c-3.7,0-6.8,1.1-9.5,3.4c-2.7,2.3-4.1,5.5-4.1,9.6c0,2.1,0.5,4.1,1.6,6l1.5,2.7c0,0.6-0.2,0.9-0.5,1
		c-0.3,0.1-0.9,0.2-1.8,0.2c-3.1,0-5.6-1-7.7-3.1c-2.1-2-3.1-4.6-3.1-7.7c0-5.7,2.3-10.1,6.9-13.2S52.3,12,58.8,12
		c7.7,0,13.7,1.7,18.2,5s6.7,8,6.7,14.1c0,3.5-0.9,7.2-2.8,11c-1.9,3.8-4.7,7.8-8.4,11.9C68.7,58,65,61.8,61.2,65.2
		c-3.8,3.4-8.4,7.4-14,11.9h38.3c0,4.3-1.1,7.4-3.4,9.2H35.6z"/>
</g>
<g class="st0">
	<path d="M34.5,75.2c-2,0-3.6-1-4.7-3.1l-3.6-6.1c-2.6,2.9-3.9,4.9-3.9,5.8c0,0.5,0.3,1,0.9,1.4l0.8,0.7l-0.5,0.7h-6.9l-0.6-0.9
		c3.4-3.3,6.5-6.5,9.3-9.4L20.3,56c-0.5-0.8-1.1-1.2-1.9-1.2c-0.4,0-1,0.2-1.7,0.6l-1-1.3c1.2-1.3,2.6-2,4.1-2c2.1,0,3.6,1,4.7,3
		l3.5,6.1c2.6-2.9,3.9-4.9,3.9-5.8c0-0.4-0.3-0.9-0.8-1.4l-1-0.7l0.6-0.7h6.9l0.4,0.9c-4.6,4.6-7.6,7.7-9.1,9.3l4.9,8.4
		c0.5,0.8,1.1,1.2,1.9,1.2c0.5,0,1.1-0.2,1.6-0.5l1.1,1.3C37.2,74.5,35.9,75.2,34.5,75.2z"/>
</g>
</svg>
